<?xml version="1.0" encoding="utf-8"?>
<!-- Generator: Adobe Illustrator 16.0.0, SVG Export Plug-In . SVG Version: 6.00 Build 0)  -->
<!DOCTYPE svg PUBLIC "-//W3C//DTD SVG 1.1//EN" "http://www.w3.org/Graphics/SVG/1.1/DTD/svg11.dtd">
<svg version="1.1" id="Layer_1" xmlns="http://www.w3.org/2000/svg" xmlns:xlink="http://www.w3.org/1999/xlink" x="0px" y="0px"
	 width="1920px" height="561px" viewBox="0 0 1920 561" enable-background="new 0 0 1920 561" xml:space="preserve">
<g enable-background="new    ">
	<g>
		<defs>
			<rect id="SVGID_1_" y="-123" width="1920" height="684"/>
		</defs>
		<clipPath id="SVGID_2_">
			<use xlink:href="#SVGID_1_"  overflow="visible"/>
		</clipPath>
		<path clip-path="url(#SVGID_2_)" fill="#FFFFFF" d="M960,52c39.393,0,78.761,0.999,118.105,2.998
			c39.346,1.999,78.619,4.994,117.822,8.985c39.202,3.992,78.286,8.976,117.252,14.952c38.967,5.976,77.768,12.936,116.402,20.881
			c38.635,7.945,77.059,16.866,115.271,26.761s76.166,20.755,113.862,32.577c37.696,11.822,75.089,24.593,112.179,38.313
			c37.089,13.72,73.831,28.373,110.225,43.958s72.396,32.084,108.007,49.497c35.609,17.413,70.785,35.718,105.526,54.916
			s69.006,39.267,102.794,60.203c33.787,20.938,67.059,42.72,99.812,65.346c32.754,22.626,64.95,46.069,96.591,70.33
			s62.686,49.31,93.137,75.146s60.27,52.43,89.458,79.779c29.188,27.351,57.708,55.424,85.563,84.223
			c27.854,28.797,55.008,58.284,81.463,88.46c26.454,30.177,52.176,61.005,77.166,92.487c24.99,31.481,49.219,63.578,72.684,96.29
			c23.467,32.711,46.143,65.998,68.027,99.86c21.886,33.863,42.954,68.26,63.205,103.192
			c20.252,34.932,39.663,70.356,58.232,106.273c18.569,35.918,36.275,72.284,53.117,109.101
			c16.844,36.815,32.803,74.037,47.877,111.663s29.248,75.611,42.519,113.957s25.624,77.005,37.06,115.978
			c11.435,38.972,21.938,78.211,31.51,117.717c9.57,39.506,18.199,79.23,25.885,119.174c7.685,39.943,14.417,80.059,20.197,120.344
			c5.779,40.285,10.601,80.693,14.463,121.223c3.86,40.53,6.758,81.134,8.69,121.811c1.933,40.678,2.899,81.379,2.899,122.105
			s-0.967,81.428-2.899,122.105c-1.933,40.677-4.83,81.28-8.69,121.811c-3.862,40.529-8.684,80.938-14.463,121.223
			c-5.78,40.285-12.513,80.399-20.197,120.344c-7.686,39.943-16.314,79.668-25.885,119.174
			c-9.572,39.505-20.075,78.744-31.51,117.717c-11.436,38.973-23.789,77.632-37.06,115.978
			c-13.271,38.345-27.444,76.331-42.519,113.957s-31.033,74.847-47.877,111.663c-16.842,36.815-34.548,73.182-53.117,109.1
			c-18.569,35.917-37.98,71.342-58.232,106.273c-20.251,34.933-41.319,69.33-63.205,103.192
			c-21.885,33.862-44.561,67.149-68.027,99.86c-23.465,32.712-47.693,64.809-72.683,96.291
			c-24.991,31.481-50.713,62.311-77.167,92.486c-26.455,30.176-53.609,59.662-81.463,88.461
			c-27.855,28.798-56.376,56.871-85.564,84.222c-29.188,27.351-59.006,53.943-89.457,79.78
			c-30.451,25.836-61.496,50.885-93.137,75.145c-31.641,24.261-63.838,47.704-96.591,70.33
			c-32.754,22.627-66.024,44.408-99.813,65.346s-68.052,41.006-102.793,60.203c-34.741,19.199-69.917,37.504-105.526,54.916
			c-35.611,17.412-71.613,33.912-108.007,49.497s-73.136,30.237-110.225,43.958c-37.09,13.721-74.482,26.492-112.179,38.314
			c-37.696,11.821-75.65,22.681-113.862,32.576c-38.212,9.896-76.636,18.816-115.271,26.762s-77.436,14.906-116.401,20.881
			c-38.966,5.977-78.051,10.961-117.253,14.953c-39.203,3.991-78.477,6.986-117.822,8.984C1038.761,5028.001,999.393,5029,960,5029
			s-78.761-0.999-118.105-2.998c-39.345-1.998-78.619-4.993-117.821-8.984c-39.203-3.992-78.288-8.977-117.253-14.953
			c-38.966-5.975-77.767-12.936-116.402-20.881s-77.059-16.865-115.271-26.762c-38.211-9.896-76.166-20.755-113.861-32.576
			c-37.696-11.822-75.089-24.594-112.179-38.314c-37.089-13.72-73.831-28.373-110.225-43.958
			c-36.394-15.585-72.396-32.084-108.006-49.497c-35.61-17.412-70.786-35.717-105.527-54.916
			c-34.741-19.197-69.005-39.266-102.793-60.203s-67.059-42.719-99.813-65.346c-32.753-22.626-64.95-46.068-96.59-70.329
			s-62.686-49.31-93.136-75.146c-30.451-25.837-60.27-52.43-89.458-79.78s-57.709-55.424-85.563-84.222
			c-27.855-28.799-55.009-58.285-81.463-88.461c-26.455-30.176-52.177-61.005-77.167-92.486
			c-24.99-31.482-49.218-63.579-72.684-96.291c-23.466-32.711-46.142-65.998-68.027-99.86
			c-21.885-33.862-42.954-68.26-63.205-103.192c-20.252-34.932-39.662-70.356-58.232-106.273
			c-18.569-35.917-36.275-72.284-53.118-109.1c-16.842-36.816-32.801-74.037-47.876-111.663
			c-15.075-37.626-29.248-75.612-42.519-113.958c-13.271-38.345-25.624-77.004-37.059-115.977s-21.938-78.212-31.51-117.717
			c-9.572-39.506-18.2-79.23-25.885-119.174c-7.686-39.944-14.418-80.059-20.198-120.344c-5.78-40.285-10.601-80.693-14.462-121.223
			c-3.861-40.53-6.758-81.134-8.691-121.811c-1.933-40.678-2.899-81.379-2.899-122.105s0.966-81.428,2.899-122.105
			c1.933-40.677,4.83-81.28,8.691-121.811c3.861-40.529,8.682-80.938,14.462-121.223c5.78-40.285,12.512-80.4,20.198-120.344
			c7.685-39.943,16.313-79.668,25.885-119.174c9.571-39.506,20.075-78.745,31.51-117.717
			c11.435-38.973,23.788-77.632,37.059-115.978c13.271-38.346,27.444-76.331,42.519-113.957
			c15.075-37.626,31.034-74.848,47.876-111.663c16.842-36.816,34.548-73.183,53.118-109.1c18.57-35.918,37.98-71.343,58.232-106.274
			c20.251-34.933,41.32-69.329,63.205-103.192c21.886-33.862,44.561-67.149,68.027-99.86c23.466-32.712,47.694-64.809,72.684-96.29
			c24.99-31.482,50.712-62.311,77.167-92.487c26.454-30.176,53.608-59.663,81.463-88.46c27.854-28.799,56.375-56.872,85.563-84.223
			c29.188-27.35,59.007-53.942,89.458-79.779c30.451-25.836,61.496-50.885,93.136-75.146c31.641-24.261,63.837-47.704,96.591-70.33
			c32.754-22.626,66.024-44.408,99.813-65.345c33.788-20.938,68.052-41.006,102.793-60.204
			c34.741-19.198,69.917-37.503,105.527-54.916s71.612-33.912,108.006-49.497s73.136-30.238,110.225-43.958
			c37.09-13.721,74.483-26.492,112.179-38.313c37.696-11.822,75.65-22.682,113.862-32.577
			c38.212-9.896,76.636-18.816,115.271-26.761c38.635-7.945,77.436-14.906,116.402-20.881c38.966-5.976,78.051-10.96,117.254-14.952
			c39.203-3.992,78.477-6.987,117.821-8.985S920.607,52,960,52z"/>
	</g>
</g>
</svg>
