<?xml version="1.0" encoding="utf-8"?>
<!-- Generator: Adobe Illustrator 16.0.0, SVG Export Plug-In . SVG Version: 6.00 Build 0)  -->
<!DOCTYPE svg PUBLIC "-//W3C//DTD SVG 1.1//EN" "http://www.w3.org/Graphics/SVG/1.1/DTD/svg11.dtd">
<svg version="1.1" id="Layer_1" xmlns="http://www.w3.org/2000/svg" xmlns:xlink="http://www.w3.org/1999/xlink" x="0px" y="0px"
	 width="510px" height="186px" viewBox="99.33 190.465 510 186" enable-background="new 99.33 190.465 510 186"
	 xml:space="preserve">
<g>
	<polygon fill="#FFFFFF" points="150.82,267.61 121.79,267.61 121.79,250.35 147.46,250.35 147.46,235.56 121.79,235.56 
		121.79,219.64 150.82,219.64 150.82,204.29 102.63,204.29 102.63,282.96 150.82,282.96 	"/>
	<polygon fill="#FFFFFF" points="218.95,282.96 197.44,251.92 218.39,220.43 197.66,220.43 187.57,237.69 175.58,220.43 
		154.07,220.43 175.25,251.02 154.63,282.96 175.36,282.96 185.44,265.59 197.44,282.96 	"/>
	<rect x="296.84" y="200.03" fill="#FFFFFF" width="19.16" height="82.93"/>
	<path fill="#FFFFFF" d="M355.56,283.86c18.381,0,32.721-12.33,32.721-32.16s-14.12-32.16-32.5-32.16
		c-18.271,0-32.5,12.33-32.5,32.16C323.28,271.53,337.18,283.86,355.56,283.86z M355.79,236.12c6.72,0,13,4.93,13,15.58
		c0,10.53-6.39,15.58-13.22,15.58c-6.95,0-12.78-5.04-12.78-15.58C342.79,241.05,348.84,236.12,355.79,236.12z"/>
	<path fill="#FFFFFF" d="M414.85,230.85v-10.42H395.69v62.53h19.159v-29.02c0-10.76,5.271-13.9,14.341-13.9h5.27v-20.28
		C426.05,219.76,419.22,224.24,414.85,230.85z"/>
	<path fill="#FFFFFF" d="M450.48,193.2c-6.841,0-11.431,4.59-11.431,10.42c0,5.72,4.59,10.31,11.431,10.31
		c6.72,0,11.319-4.59,11.319-10.31C461.8,197.79,457.21,193.2,450.48,193.2z"/>
	<rect x="440.85" y="220.43" fill="#FFFFFF" width="19.16" height="62.53"/>
	<path fill="#FFFFFF" d="M509.21,219.76c-8.4,0-15.13,3.7-18.94,8.96v-8.29H471.1v62.53h19.16V249c0-8.52,4.71-13.22,11.99-13.22
		s11.99,4.71,11.99,13.22v33.96h19.05v-36.53C533.3,229.62,523.66,219.76,509.21,219.76z"/>
	<path fill="#FFFFFF" d="M586.87,220.43v8.85c-3.36-5.6-10.09-9.75-19.28-9.75c-15.35,0-27.57,12.33-27.57,32.05
		c0,19.72,12.211,32.27,27.57,32.27c9.19,0,15.8-4.37,19.28-9.86v8.85c0,10.53-5.72,14.34-13,14.34c-6.61,0-11.32-3.029-12.55-7.729
		h-18.94c1.68,14.899,13.78,24.319,32.39,24.319c21.631,0,31.271-14.229,31.271-30.93v-62.42h-19.17V220.43z M573.2,267.16
		c-7.17,0-13.67-5.6-13.67-15.58c0-9.97,6.5-15.35,13.67-15.35c7.28,0,13.67,5.49,13.67,15.46
		C586.87,261.67,580.48,267.16,573.2,267.16z"/>
	<rect x="102.63" y="294.13" fill="#FFFFFF" width="19.16" height="78.67"/>
	<path fill="#FFFFFF" d="M149.47,328.42c0-3.029,2.47-4.82,6.95-4.82c5.38,0,8.63,2.801,9.19,7.061h17.71
		c-1.23-12.33-10.2-21.29-26.34-21.29c-16.36,0-25.44,8.739-25.44,19.39c0,22.971,34.07,15.69,34.07,25.77
		c0,2.801-2.58,5.041-7.51,5.041c-5.27,0-9.19-2.91-9.64-7.28h-18.94c0.9,12.101,12.1,21.399,28.8,21.399
		c15.69,0,25.33-8.18,25.33-19.049C183.32,331.33,149.47,338.391,149.47,328.42z"/>
	<path fill="#FFFFFF" d="M279.13,319.12c-3.36-5.49-9.97-9.75-19.28-9.75c-15.35,0-27.57,12.33-27.57,32.05
		c0,19.721,12.22,32.27,27.46,32.27c9.3,0,15.91-4.26,19.39-9.75v8.851h19.16v-62.53h-19.16V319.12z M265.46,357
		c-7.17,0-13.67-5.6-13.67-15.58c0-9.97,6.5-15.35,13.67-15.35c7.28,0,13.67,5.49,13.67,15.459C279.13,351.51,272.75,357,265.46,357
		z"/>
	<path fill="#FFFFFF" d="M389.18,309.59c-9.08,0-16.92,5.04-21.069,11.65c-4.261-7.51-11.88-11.65-21.29-11.65
		c-8.181,0-14.57,3.471-18.271,8.52v-7.84h-19.16v62.53h19.16v-33.96c0-8.18,4.71-12.66,11.99-12.66s11.99,4.48,11.99,12.66v33.96
		h19.05v-33.96c0-8.18,4.71-12.66,11.99-12.66c7.279,0,11.989,4.48,11.989,12.66v33.96h19.051v-36.53
		C414.62,319.46,404.65,309.59,389.18,309.59z"/>
	<path fill="#FFFFFF" d="M263.95,286.62c18.89-5.93,29.43-26.12,23.5-45.01c-5.93-18.89-26.12-29.43-45.01-23.5
		c-18.89,5.93-29.43,26.12-23.5,45.01c2.31,7.37,6.98,13.8,13.25,18.32l-42.93,82.08c-0.86,1.65-1.03,3.541-0.47,5.32
		c0.56,1.78,1.77,3.23,3.43,4.09c1.03,0.541,2.13,0.791,3.21,0.791c2.52,0,4.95-1.371,6.2-3.75l43.25-82.701
		C251.18,288.8,257.73,288.57,263.95,286.62z M232.25,258.94c-1.75-5.58-1.22-11.53,1.49-16.73c2.72-5.2,7.29-9.04,12.87-10.79
		s11.53-1.22,16.73,1.49c5.2,2.72,9.04,7.29,10.79,12.87c3.63,11.55-2.82,23.89-14.37,27.52c-5.58,1.76-11.52,1.22-16.73-1.49
		C237.84,269.1,234.01,264.53,232.25,258.94z"/>
</g>
</svg>
